<?xml version="1.0" encoding="UTF-8"?>
<svg id="Layer_2" data-name="Layer 2" xmlns="http://www.w3.org/2000/svg" viewBox="0 0 38.63 34.87">
  <defs>
    <style>
      .cls-1 {
        fill: #fff;
      }

      .cls-1, .cls-2 {
        stroke-width: 0px;
      }

      .cls-2 {
        fill: #eece01;
      }
    </style>
  </defs>
  <g id="Layer_1-2" data-name="Layer 1">
    <g>
      <rect class="cls-2" x="1.96" y="4.46" width="13.11" height="4.59" rx="2.29" ry="2.29"/>
      <rect class="cls-2" x=".29" y="11.65" width="12.62" height="4.59" rx="2.29" ry="2.29"/>
      <rect class="cls-2" x="1.96" y="26.04" width="13.11" height="4.59" rx="2.29" ry="2.29"/>
      <rect class="cls-2" x="0" y="18.85" width="12.63" height="4.59" rx="2.29" ry="2.29"/>
    </g>
    <path class="cls-1" d="m14.92,31.92c-2.14-1.7-3.76-3.92-4.87-6.69-1.1-2.76-1.51-5.8-1.22-9.12s1.21-6.24,2.78-8.77c1.56-2.53,3.55-4.44,5.95-5.72C19.96.34,22.52-.18,25.24.06s5.15,1.2,7.28,2.87c2.13,1.68,3.74,3.9,4.83,6.66,1.09,2.76,1.49,5.8,1.2,9.11s-1.21,6.24-2.76,8.77c-1.55,2.53-3.53,4.45-5.93,5.75-2.4,1.3-4.95,1.83-7.64,1.6s-5.15-1.2-7.29-2.9Zm12.5-8.67c1.1-1.27,1.75-3.05,1.95-5.35s-.13-4.21-.99-5.65c-.86-1.44-2.19-2.24-3.99-2.39s-3.28.4-4.38,1.67c-1.1,1.27-1.75,3.07-1.95,5.4s.13,4.16.99,5.6c.86,1.44,2.2,2.24,4.03,2.4s3.24-.4,4.34-1.67Z"/>
    <path class="cls-2" d="m28.52,17.52c-.28,3.79-1.93,6.42-4.67,6.52s-5.23-2.53-4.92-6.51c.29-3.59,2.19-6.75,4.92-6.67,3.57.1,4.94,3,4.67,6.65Z"/>
  </g>
</svg>