<?xml version="1.0" encoding="UTF-8"?>
<svg id="Layer_2" data-name="Layer 2" xmlns="http://www.w3.org/2000/svg" viewBox="0 0 163.19 34.87">
  <defs>
    <style>
      .cls-1 {
        fill: #fff;
        stroke-width: 0px;
      }
    </style>
  </defs>
  <g id="Layer_1-2" data-name="Layer 1">
    <g>
      <g>
        <path class="cls-1" d="m27.92.38c.88,0,1.55.8,1.4,1.67l-3.55,20.27c-.74,4.06-2.35,7.14-4.85,9.24-2.5,2.1-5.66,3.14-9.5,3.14-3.55,0-6.34-.86-8.38-2.57-2.03-1.71-3.05-4.23-3.05-7.56,0-.62.04-1.27.11-1.94.08-.72.69-1.27,1.42-1.27h7.7c.81,0,1.42.67,1.42,1.48,0,0,0,0,0,.01,0,1.5.66,2.26,1.97,2.26.64,0,1.18-.21,1.61-.62.43-.42.74-1.14.94-2.16L18.8,1.56c.12-.68.71-1.18,1.4-1.18h7.72Z"/>
        <path class="cls-1" d="m43.19,10.01l-.23,1.38c-.15.87.52,1.66,1.4,1.66h7.17c.89,0,1.56.8,1.4,1.67l-.93,5.17c-.12.68-.71,1.17-1.4,1.17h-8.18c-.69,0-1.28.49-1.4,1.17l-.35,1.95c-.16.87.51,1.68,1.4,1.68h8.6c.88,0,1.55.8,1.4,1.67l-.99,5.65c-.12.68-.71,1.18-1.4,1.18h-19.76c-.88,0-1.56-.8-1.4-1.67L34.02,1.56c.12-.68.71-1.18,1.4-1.18h19.77c.88,0,1.56.8,1.4,1.67l-.99,5.6c-.12.68-.71,1.18-1.4,1.18h-9.6c-.69,0-1.29.5-1.4,1.18Z"/>
        <path class="cls-1" d="m79.19,17.53l7.83,14.74c.5.95-.18,2.09-1.26,2.09h-9.42c-.54,0-1.04-.31-1.28-.79l-4.98-10.09c-.61-1.23-2.44-.97-2.68.38l-1.63,9.32c-.12.68-.71,1.18-1.4,1.18h-7.76c-.88,0-1.56-.8-1.4-1.67L60.7,1.56c.12-.68.71-1.18,1.4-1.18h7.76c.89,0,1.56.8,1.4,1.67l-1.33,7.51c-.25,1.43,1.54,2.28,2.48,1.18L80.89.88c.27-.31.66-.5,1.08-.5h8.2c1.23,0,1.88,1.46,1.06,2.38l-11.84,13.16c-.4.44-.48,1.09-.2,1.62Z"/>
      </g>
      <rect class="cls-1" x="95.41" y="13.41" width="20.6" height="8.25" rx="2.18" ry="2.18"/>
      <path class="cls-1" d="m161.9,9.59c-1.09-2.76-2.7-4.98-4.83-6.66-2.13-1.68-4.55-2.64-7.28-2.87-2.72-.24-5.28.29-7.68,1.57-1.45.78-2.74,1.78-3.89,3.01-.27-.12-.58-.18-.89-.18h-8.52c-1.27,0-2.29,1.03-2.29,2.29s1.03,2.29,2.29,2.29h6.44c-.4.83-.74,1.7-1.01,2.61h-7.1c-1.27,0-2.29,1.03-2.29,2.29s1.03,2.29,2.29,2.29h6.24c-.07.89-.09,1.76-.07,2.61h-6.46c-1.27,0-2.29,1.03-2.29,2.29s1.03,2.29,2.29,2.29h7.16c.17.61.37,1.21.6,1.8.11.28.25.54.38.81h-6.18c-1.27,0-2.29,1.03-2.29,2.29s1.03,2.29,2.29,2.29h8.52c.22,0,.42-.04.62-.09.47.5.98.96,1.52,1.39,2.14,1.7,4.57,2.66,7.29,2.9,2.69.23,5.24-.3,7.64-1.6,2.4-1.3,4.38-3.22,5.93-5.75,1.55-2.53,2.47-5.45,2.76-8.77.29-3.32-.11-6.35-1.2-9.11Zm-7.98,8.31c-.2,2.3-.85,4.08-1.95,5.35-1.1,1.27-2.54,1.83-4.34,1.67-1.82-.16-3.17-.96-4.03-2.4-.86-1.44-1.19-3.31-.99-5.6.2-2.33.85-4.12,1.95-5.4,1.1-1.27,2.56-1.83,4.38-1.67,1.8.16,3.12.96,3.99,2.39.86,1.44,1.19,3.32.99,5.65Z"/>
      <path class="cls-1" d="m153.07,17.52c-.28,3.79-1.93,6.42-4.67,6.52s-5.23-2.53-4.92-6.51c.29-3.59,2.19-6.75,4.92-6.67,3.57.1,4.94,3,4.67,6.65Z"/>
    </g>
  </g>
</svg>