<?xml version="1.0" encoding="UTF-8"?>
<svg id="Layer_2" data-name="Layer 2" xmlns="http://www.w3.org/2000/svg" viewBox="0 0 218.9 175.49">
  <defs>
    <style>
      .cls-1 {
        fill: none;
        stroke: #231f20;
        stroke-miterlimit: 10;
      }

      .cls-2 {
        fill: #c2b59b;
      }

      .cls-2, .cls-3, .cls-4, .cls-5, .cls-6, .cls-7, .cls-8, .cls-9, .cls-10, .cls-11, .cls-12, .cls-13, .cls-14, .cls-15, .cls-16 {
        stroke-width: 0px;
      }

      .cls-3 {
        fill: #00a14b;
      }

      .cls-4 {
        fill: #19b24b;
      }

      .cls-5 {
        fill: #8dc63f;
      }

      .cls-6 {
        fill: #fdc58b;
      }

      .cls-7 {
        fill: #e8c8a1;
      }

      .cls-8 {
        fill: #ec008c;
      }

      .cls-9 {
        fill: #fdfad6;
      }

      .cls-10 {
        fill: #f7941d;
      }

      .cls-11 {
        fill: #231f20;
      }

      .cls-12 {
        fill: #414042;
      }

      .cls-13 {
        fill: #262262;
      }

      .cls-14 {
        fill: #112b46;
      }

      .cls-15 {
        fill: #eed7ba;
      }

      .cls-16 {
        fill: #c49a6c;
      }
    </style>
  </defs>
  <g id="Layer_1-2" data-name="Layer 1">
    <ellipse class="cls-3" cx="109.45" cy="87.75" rx="109.45" ry="87.75"/>
    <path class="cls-5" d="m136.87,55.06s4.34.67,5.47,1.72,10.93,14.83,10.93,14.83c0,0-3.59,5.02-4.64,3.89s-3.56-4.87-3.56-4.87h-.49s3.67,19.84,4.19,20.07-7.11,5.54-14.08,4.79-13.93-2.77-13.93-2.77l2.02-14.3,1.5-5.17-8.24,4.19s4.49-17,5.77-18.65,6.14-3.74,6.14-3.74c.21-.04-.41,1.04,1.35,1.8,1.79.77,3.37.3,4.27,0s3.29-1.8,3.29-1.8Z"/>
    <path class="cls-9" d="m121.81,63.53s3.5,9.97,4,10.1,4.55-.78,4.46-1.48-2.59-10.34-3.27-10.7-4.96,1.06-5.19,2.08Z"/>
    <path class="cls-6" d="m114.38,80.15c.01-.05.03-.1.06-.14.49-.71,4.95-7.16,5.87-7.8.97-.67,1.57-2.02,1.57-2.02l1.31-3.21c.02-.06.06-.11.1-.15l.85-.8c.13-.12.33-.16.48-.07.08.05.16.06.22-.02.15-.2,1.6-2.15,1.6-2.15,0,0,.37-.52.65-.15s-.22.17.37.22.7-.12.82.22-.25.37.12.35.6-.07.5.17-.35.42-.15.52.9.17.47.52c-.31.25-.25.56-.19.71.03.07.03.15.02.23l-.26,1.22s-.03.09-.05.13c-.29.48.02.14-.49.86s-1.22,1.4-1.33,1.51c-.01,0-.02.02-.03.02-.16.12-1.56,1.22-1.53,1.29.02.07-1.35,3.62-1.47,4.34s-2.02,3.99-2.02,3.99c0,0-1.65,2.77-2.2,3.1s-2.62,1.42-4.29,0-1.15-2.39-1.02-2.92Z"/>
    <rect class="cls-1" x="124.31" y="63.95" width=".57" height=".65" rx=".29" ry=".29" transform="translate(-14.88 78.45) rotate(-33.09)"/>
    <circle class="cls-1" cx="125.07" cy="64.93" r=".04"/>
    <path class="cls-2" d="m148.77,91.28s1.65,6.64,1.6,13.33c-.05,6.69.15,11.58.85,16.37s2.45,14.53,2.2,15.92-.23,2.15-2.31,2.1-2.58.35-2.83-.2-5.79-15.92-6.94-20.07-2.6-9.73-3.69-11.88-1.4-3.1-1.85-3.34-.95.1-1.25.8-5.69,11.03-5.04,21.82c.65,10.78.75,10.03.65,11.33s.5,2.05-1.8,2.05-2.85.65-3.39-1.45-4.94-16.97-3.89-27.31c1.05-10.33.98-17.67.98-17.67,0,0,15.64,6.49,26.73-1.8Z"/>
    <path class="cls-6" d="m148.87,75.42c.3.2,1.55,1.15,1.3,4.19s.15,8.44-1.55,11.23c-1.7,2.8-2.6,2.89-1.55,4.29s1.1,1.83,2.1,1.07,3.74-5.31,4.69-8.3c.95-3,2.1-10.53.45-13.63-1.65-3.1-1.65-2.6-1.65-2.6l-3.79,3.74Z"/>
    <path class="cls-6" d="m129.69,52.6c-.13-.02-.33.27-.38.4-.19.56-1.09,2.3-1.37,2.3-.35,0,.76,3.04,3.8,2.74s4.31-1.79,4.31-1.79c0,0,.78-.9-.06-1.9-.51-.6-.68-1.58-.75-1.97-.02-.11-.29.12-.37.25-.16.24-.57.26-2.58.42-1.63.13-2.27-.39-2.6-.44Z"/>
    <path class="cls-6" d="m124.19,43.64c-1.07-.34-1.5.09-1.5.09,0,0-.47.84-.3,1.55s.13,1.1.69,1.54.83.46,1.5.62.75.13.75.13l-.67-3.95-.47.02Z"/>
    <path class="cls-6" d="m138.85,43.59c1.07-.34,1.5.09,1.5.09,0,0,.47.84.3,1.55s-.13,1.1-.69,1.54-.83.46-1.5.62-.75.13-.75.13l.67-3.95.47.02Z"/>
    <path class="cls-11" d="m123.55,43.58c-.07-.1-.26-3.92.06-4.7s.34-.57.23-.9.03-.39-.22-.27-1.36.84-1.5.52.38-1.19.41-1.21,1.59-2.22,2.88-2.76,2.45-.9,2.71-.75.79-.04.47-.36-2.1-1.25-1.33-1.4,4.79-.22,5.88.34,2.13,1.31,2.66,1.31,3.86.69,4.4,2.12-.3,1.2-.3,1.2l.39,2.55s.66,4.31-1.29,4.13"/>
    <path class="cls-13" d="m150.27,144.7c-.05.1-.67,2.96,0,3.11s7.41,0,7.41,0c0,0,.45.07.34-.75s-.49-1.72-2.55-2.13-2.36-.22-2.36-.22c0,0-.71,1.68-1.31,1.31s-.94-.35-1.11-.82-.37-.59-.42-.49Z"/>
    <path class="cls-13" d="m130.51,145.23c.05.1.84,2.92.17,3.1s-7.4.41-7.4.41c0,0-.44.1-.38-.73s.39-1.75,2.42-2.27,2.34-.35,2.34-.35c0,0,.8,1.64,1.38,1.24s.92-.4,1.07-.88.34-.61.39-.51Z"/>
    <path class="cls-6" d="m126.18,139.88s1.42,5.97,1.47,6.04.45,1.1,1.1.9,1.42-.35,1.25-1.22-.3-7.04-.3-7.04l-3.52.45v.87Z"/>
    <path class="cls-6" d="m152.67,138.84s.66,6.1.64,6.18-.05,1.19-.73,1.22-1.46.15-1.59-.73-2.08-6.73-2.08-6.73l3.47-.76.29.82Z"/>
    <path class="cls-6" d="m138.99,43.71s-.55,3.89-1.35,5.39-2.05,4.57-5.64,4.31c-3.59-.27-6.55-4.36-6.89-6.36s-.44-3.43-.44-3.43c0,0,1.98-2.58,2.17-1.25s3.44-2.1,3.44-2.1c0,0,.1-.37.37,0,.45.62-.22.94.34.97s3.69-1.12,4.02-1.3c.09-.05,1.03,1.62,1.03,1.62,0,0,.56,1.09,1.76,1.54l1.2.45v.16Z"/>
    <path class="cls-15" d="m189.84,94.57c-1.11-.41-.4-2.95-.08-3.77.31-.83,1.25-1.32,1.25-2.13,0-.32-.21-2.81-.5-5.8.33.03,3.01.18,4.05-.78-.19,3-.35,5.47-.25,6.16.25,1.79,1.15,2.28.97,5.71-.17,3.43-2.82,4.46-3.35,4.33-.54-.12,1.44-5.28.04-5.83-1.4-.54-1.02,2.51-2.14,2.1Z"/>
    <path class="cls-12" d="m179.95,50.01c-2.21-.69-4.26-.93-4.26-.93l-.14-3.35c.75-.9,1.24-2.01,1.13-3.1-.27-2.58-.99-3.45-2.9-3.79-1.92-.35-4.24-1.34-4.98-2.66,0,0-2.58,5.51-1.78,8.27.32,1.1.88,1.9,1.56,2.47l.1,2.35s-2.32.25-4.65.9c-1,.27-1.99.61-2.81,1.05l-.07-.23c-2.46-4.66,1.07-7.55,1.85-9.17.78-1.62.18-4.46,1.71-7.21,1.53-2.76,4.04-2.28,4.04-2.28.15-.06,4.18-2.45,7.56-.15,3.37,2.3,3.45,4.31,3.37,6.37-.07,2.07.07,4.13,1.54,5.39,1.48,1.26,2.41,3.24,2.25,4.62-.16,1.39-.75,2.47-.75,2.47l-.06.12c-.16-.1-.32-.17-.49-.26-.71-.34-1.48-.63-2.23-.86Z"/>
    <path class="cls-15" d="m167.58,143.59c-.39.96-.97,1.46-1.85,1-1.54-.81-1.38-4.18-1.52-6.15-.19-2.55-.37-5.1-.56-7.65-.31-4.18-.49-8.46-1.03-12.58,0-.04-.01-.08-.02-.12-.23-1.54-.28-4.05-.28-5.7,0-.88.02-1.52.03-1.65,1.07.46,3.62,1.47,6.76,2.19.01.17.07.88.14,1.92.19,2.75.47,7.78.26,10.98-.24,3.56-.64,7.12-1.01,10.67-.15,1.45-.16,5.17-.94,7.08Z"/>
    <path class="cls-15" d="m178.35,145.43c-.1.51-.25.96-.52,1.28-.37.44-1.18.5-1.66.42-.86-.14-1.39-1.29-1.45-2.37-.07-1.36-.06-2.71-.2-4.1-.27-2.73-.62-5.45-.81-8.19-.22-3.15-.54-12.45-.67-16.18-.03-.82-.05-1.37-.05-1.53,2.28.06,4.68-.16,6.85-.88.06.43.09.92.12,1.47.14,3.39-.3,8.85-.52,13.2-.16,3.21-.38,6.42-.59,9.63-.1,1.52-.2,3.04-.3,4.56-.05.77-.03,1.82-.2,2.7Z"/>
    <path class="cls-15" d="m175.56,45.73c-1,1.23-2.46,2.11-3.52,2.22-1.1.11-2.41-.17-3.44-1.03-.68-.56-1.25-1.37-1.56-2.47-.8-2.77,1.78-8.27,1.78-8.27.74,1.32,3.06,2.31,4.98,2.66,1.92.35,2.64,1.21,2.9,3.79.11,1.1-.38,2.2-1.13,3.1Z"/>
    <path class="cls-7" d="m175.69,49.08s2.05.24,4.26.93c-.01.14-.05.6-.11,1.32,0,0,0,.02,0,.03-.6,2.12-2.34,2.5-5.99,2.49-3.86,0-7.74-.21-8.87-.85-1.04-.58-.98-2.52-.96-2.83,2.34-.64,4.65-.9,4.65-.9l-.1-2.35c1.03.86,2.34,1.14,3.44,1.03,1.06-.1,2.52-.99,3.52-2.22l.14,3.35Z"/>
    <path class="cls-16" d="m179.39,60.89c.13-4.44.57-10.25.61-10.94.17.09,2.52,1.08,2.68,1.18.83.45,1.55,1,2.02,1.64,2.09,2.88,9.8,12.13,10.31,15.92.31,2.34-.12,8.56-.43,13.4h0c-1.04.96-3.72.81-4.05.78-.43-4.57-1.05-10.3-1.4-11.27-.56-1.59-5.88-8.57-7.38-9.82l-2.1-.56c-.15-.04-.26-.18-.25-.33Z"/>
    <path class="cls-16" d="m164.17,72.43c1.42-1.23,2.68-2.42,3.18-2.42.69-.01,3.91-.48,4.72-2.12.8-1.63,1.16-4.14.73-4.52-.43-.39-3.92,1.87-5.04,1.46-1.11-.41-.58-2.99-1.19-3.14-.61-.15-1.31.62-1.28,1.8.03,1.18.05,2.79-.53,3.14-.28.18-1.15.74-2.12,1.3l-.38-5.95c-.99,1.36-2.79,7.2-2.79,7.25v.02c.15-.05.28-.08.41-.1.63-.1,1.58-.56,2.49-1.07-.04.28-.46,3.28,1.8,4.37Zm17.22-10.32c.05,4.82-.24,11.06.3,16.95l-1.58-.38c-7.64,2.38-16.78-.1-16.78-.1l-.34-5.16c-.13.1-.26.21-.39.3-1.96,1.51-7.16,5.64-9.33,3.29-2.16-2.35.46-9.12,1.94-13.13,1.48-4,4.17-10.46,6.54-12.25.22-.17.47-.32.74-.47.76-.43,1.69-.77,2.62-1.04-.02.31-.07,2.25.9,2.83,1.06.64,4.67.87,8.27.88,3.4.01,5.02-.36,5.57-2.48-.15,2.05,1.5,6.37,1.54,10.75Z"/>
    <polygon class="cls-14" points="171.11 67.32 166.1 67.52 165.77 59.25 171.37 59.02 171.11 67.32"/>
    <path class="cls-4" d="m162.71,77.32s4.97,2.21,11.26,1.64,7.71.09,7.71.09c0,0,5.45,25.3,5.57,27.54.1,1.94.14,6.02-3.82,6.6s-15.88,2.69-23.48.05-13.33-2.18-11.04-7.57c2.29-5.39,13.8-28.35,13.8-28.35Z"/>
    <path class="cls-15" d="m166.7,61.71c.66.15.08,2.73,1.27,3.14,1.2.41,4.95-1.86,5.41-1.47.46.39.07,2.89-.8,4.53-.87,1.64-4.32,2.12-5.07,2.14-.54,0-1.9,1.2-3.42,2.43-2.42-1.09-1.97-4.08-1.92-4.37.1-.05.2-.1.3-.15,1.04-.56,1.98-1.12,2.28-1.3.62-.36.61-1.96.58-3.15-.03-1.18.72-1.95,1.37-1.8Z"/>
    <path class="cls-13" d="m174.65,142.82c-.15.03-.89,4.01-.13,4.24s8.44.26,8.44.26c0,0,.51.12.41-1.01s-.48-2.37-2.81-3c-1.22-.33-1.9-.42-2.26-.43-.24,0-.44.13-.54.35-.27.6-.72,1.85-1.42,1.44-.74-.43-.76-.48-1.06-1.07-.35-.69-.42-.81-.63-.77Z"/>
    <path class="cls-13" d="m164.65,142.37c-.06.14-.89,4.01-.13,4.24s8.44.26,8.44.26c0,0,.51.12.41-1.01s-.48-2.37-2.81-3-2.68-.39-2.68-.39c0,0-.88,2.27-1.55,1.74s-1.06-.51-1.23-1.16-.4-.82-.46-.69Z"/>
    <path class="cls-10" d="m93.05,56.15s4.34.67,5.47,1.72,10.93,14.83,10.93,14.83c0,0-3.59,5.02-4.64,3.89s-3.56-4.87-3.56-4.87h-.49s3.67,19.84,4.19,20.07-7.11,5.54-14.08,4.79-13.93-2.77-13.93-2.77l3.43-21.1c.04-.23-.28-.33-.38-.12l-3.11,6.25-4.66-.31s4.49-17,5.77-18.65,6.14-3.74,6.14-3.74c.21-.04-.41,1.04,1.35,1.8,1.79.77,3.37.3,4.27,0s3.29-1.8,3.29-1.8Z"/>
    <path class="cls-6" d="m77.5,77.73s.05.09.06.14c.17.84,1.7,8.54,1.51,9.65-.19,1.17.36,2.54.36,2.54l1.39,3.18c.02.06.04.11.04.17l-.02,1.17c0,.18-.11.35-.29.39-.09.02-.16.07-.14.17.04.25.43,2.64.43,2.64,0,0,.12.63-.34.57s.03-.28-.42.11-.4.59-.73.44-.1-.44-.34-.15-.36.48-.47.24-.06-.55-.27-.47-.75.52-.71-.02c.03-.39-.23-.56-.37-.63-.07-.03-.13-.08-.17-.15l-.7-1.04s-.05-.08-.06-.13c-.15-.54-.11-.09-.28-.95s-.16-1.86-.16-2.01c0-.01,0-.02,0-.04.02-.2.21-1.96.14-2-.07-.03-1.66-3.49-2.09-4.08s-1.46-4.23-1.46-4.23c0,0-.84-3.11-.69-3.73s.8-2.87,2.99-3.08,2.52.84,2.8,1.3Z"/>
    <path class="cls-2" d="m104.96,92.36s1.65,6.64,1.6,13.33c-.05,6.69.15,11.58.85,16.37s2.45,14.53,2.2,15.92-.23,2.15-2.31,2.1-2.58.35-2.83-.2-5.79-15.92-6.94-20.07-2.6-9.73-3.69-11.88-1.4-3.1-1.85-3.34-.95.1-1.25.8-5.69,11.03-5.04,21.82c.65,10.78.75,10.03.65,11.33s.5,2.05-1.8,2.05-2.85.65-3.39-1.45-4.94-16.97-3.89-27.31c1.05-10.33.98-17.67.98-17.67,0,0,15.64,6.49,26.73-1.8Z"/>
    <path class="cls-6" d="m105.06,76.51c.3.2,1.55,1.15,1.3,4.19s.15,8.44-1.55,11.23c-1.7,2.8-2.6,2.89-1.55,4.29s1.1,1.83,2.1,1.07,3.74-5.31,4.69-8.3c.95-3,2.1-10.53.45-13.63s-1.65-2.6-1.65-2.6l-3.79,3.74Z"/>
    <path class="cls-6" d="m85.88,53.69c-.13-.02-.33.27-.38.4-.19.56-1.09,2.3-1.37,2.3-.35,0,.76,3.04,3.8,2.74s4.31-1.79,4.31-1.79c0,0,.78-.9-.06-1.9-.51-.6-.68-1.58-.75-1.97-.02-.11-.29.12-.37.25-.16.24-.57.26-2.58.42-1.63.13-2.27-.39-2.6-.44Z"/>
    <path class="cls-6" d="m80.38,44.73c-1.07-.34-1.5.09-1.5.09,0,0-.47.84-.3,1.55s.13,1.1.69,1.54.83.46,1.5.62.75.13.75.13l-.67-3.95-.47.02Z"/>
    <path class="cls-6" d="m95.04,44.67c1.07-.34,1.5.09,1.5.09,0,0,.47.84.3,1.55s-.13,1.1-.69,1.54-.83.46-1.5.62-.75.13-.75.13l.67-3.95.47.02Z"/>
    <path class="cls-11" d="m79.74,44.67c-.07-.1-.26-3.92.06-4.7s.34-.57.23-.9.03-.39-.22-.27-1.36.84-1.5.52.38-1.19.41-1.21,1.59-2.22,2.88-2.76,2.45-.9,2.71-.75.79-.04.47-.36-2.1-1.25-1.33-1.4,4.79-.22,5.88.34,2.13,1.31,2.66,1.31,3.86.69,4.4,2.12-.3,1.2-.3,1.2l.39,2.55s.66,4.31-1.29,4.13"/>
    <path class="cls-13" d="m106.46,145.78c-.05.1-.67,2.96,0,3.11s7.41,0,7.41,0c0,0,.45.07.34-.75s-.49-1.72-2.55-2.13-2.36-.22-2.36-.22c0,0-.71,1.68-1.31,1.31s-.94-.35-1.11-.82-.37-.59-.42-.49Z"/>
    <path class="cls-13" d="m86.7,146.32c.05.1.84,2.92.17,3.1s-7.4.41-7.4.41c0,0-.44.1-.38-.73s.39-1.75,2.42-2.27,2.34-.35,2.34-.35c0,0,.8,1.64,1.38,1.24s.92-.4,1.07-.88.34-.61.39-.51Z"/>
    <path class="cls-6" d="m82.37,140.96s1.42,5.97,1.47,6.04.45,1.1,1.1.9,1.42-.35,1.25-1.22-.3-7.04-.3-7.04l-3.52.45v.87Z"/>
    <path class="cls-6" d="m108.86,139.92s.66,6.1.64,6.18-.05,1.19-.73,1.22-1.46.15-1.59-.73-2.08-6.73-2.08-6.73l3.47-.76.29.82Z"/>
    <path class="cls-6" d="m95.17,44.79s-.55,3.89-1.35,5.39-2.05,4.57-5.64,4.31-6.55-4.36-6.89-6.36-.44-3.43-.44-3.43c0,0,1.98-2.58,2.17-1.25s3.44-2.1,3.44-2.1c0,0,.1-.37.37,0,.45.62-.22.94.34.97s3.69-1.12,4.02-1.3c.09-.05,1.03,1.62,1.03,1.62,0,0,.56,1.09,1.76,1.54l1.2.45v.16Z"/>
    <path class="cls-12" d="m54.94,53.72c-2.21-.69-4.26-.93-4.26-.93l-.14-3.35c.75-.9,1.24-2.01,1.13-3.1-.27-2.58-.99-3.45-2.9-3.79-1.92-.35-4.24-1.34-4.98-2.66,0,0-2.58,5.51-1.78,8.27.32,1.1.88,1.9,1.56,2.47l.1,2.35s-2.32.25-4.65.9c-1,.27-1.99.61-2.81,1.05l-.07-.23c-2.46-4.66,1.07-7.55,1.85-9.17.78-1.62.18-4.46,1.71-7.21,1.53-2.76,4.04-2.28,4.04-2.28.15-.06,4.18-2.45,7.56-.15,3.37,2.3,3.45,4.31,3.37,6.37-.07,2.07.07,4.13,1.54,5.39,1.48,1.26,2.41,3.24,2.25,4.62-.16,1.39-.75,2.47-.75,2.47l-.06.12c-.16-.1-.32-.17-.49-.26-.71-.34-1.48-.63-2.23-.86Z"/>
    <path class="cls-15" d="m42.56,147.3c-.39.96-.97,1.46-1.85,1-1.54-.81-1.38-4.18-1.52-6.15-.19-2.55-.37-5.1-.56-7.65-.31-4.18-.49-8.46-1.03-12.58,0-.04-.01-.08-.02-.12-.23-1.54-.28-4.05-.28-5.7,0-.88.02-1.52.03-1.65,1.07.46,3.62,1.47,6.76,2.19.01.17.07.88.14,1.92.19,2.75.47,7.78.26,10.98-.24,3.56-.64,7.12-1.01,10.67-.15,1.45-.16,5.17-.94,7.08Z"/>
    <path class="cls-15" d="m53.34,149.13c-.1.51-.25.96-.52,1.28-.37.44-1.18.5-1.66.42-.86-.14-1.39-1.29-1.45-2.37-.07-1.36-.06-2.71-.2-4.1-.27-2.73-.62-5.45-.81-8.19-.22-3.15-.54-12.45-.67-16.18-.03-.82-.05-1.37-.05-1.53,2.28.06,4.68-.16,6.85-.88.06.43.09.92.12,1.47.14,3.39-.3,8.85-.52,13.2-.16,3.21-.38,6.42-.59,9.63-.1,1.52-.2,3.04-.3,4.56-.05.77-.03,1.82-.2,2.7Z"/>
    <path class="cls-15" d="m50.54,49.43c-1,1.23-2.46,2.11-3.52,2.22-1.1.11-2.41-.17-3.44-1.03-.68-.56-1.25-1.37-1.56-2.47-.8-2.77,1.78-8.27,1.78-8.27.74,1.32,3.06,2.31,4.98,2.66,1.92.35,2.64,1.21,2.9,3.79.11,1.1-.38,2.2-1.13,3.1Z"/>
    <path class="cls-7" d="m50.68,52.79s2.05.24,4.26.93c-.01.14-.05.6-.11,1.32,0,0,0,.02,0,.03-.6,2.12-2.34,2.5-5.99,2.49-3.86,0-7.74-.21-8.87-.85-1.04-.58-.98-2.52-.96-2.83,2.34-.64,4.65-.9,4.65-.9l-.1-2.35c1.03.86,2.34,1.14,3.44,1.03,1.06-.1,2.52-.99,3.52-2.22l.14,3.35Z"/>
    <path class="cls-8" d="m65.08,81.44c-1.04.96-4.71,1.45-5.04,1.42-.43-4.57-1.64-6.9-1.99-7.87-.56-1.59.17-8.24-1.33-9.49l-2.1-.56c-.15-.04-.26-.18-.25-.33.13-4.44.57-10.25.61-10.94.17.09,2.52,1.08,2.68,1.18.83.45,1.55,1,2.02,1.64,2.09,2.88,2.91,12.12,3.42,15.9"/>
    <path class="cls-8" d="m37.03,67.42c-.23-4.26-2.67-10.29-.3-12.08.22-.17.47-.32.74-.47.76-.43,1.69-.77,2.62-1.04-.02.31-.07,2.25.9,2.83,1.06.64,4.67.87,8.27.88,3.4.01,5.02-.36,5.57-2.48-.15,2.05,1.5,6.37,1.54,10.75.05,4.82-.24,11.06.3,16.95l-1.58-.38c-7.64,2.38-16.78-.1-16.78-.1l-.34-5.16"/>
    <path class="cls-4" d="m37.34,81.8s5.2,1.58,11.38.24,7.67-.85,7.67-.85c0,0,8.51,24.45,8.9,26.65.34,1.92.88,5.96-2.98,7.02s-15.43,4.61-23.3,2.93-13.49-.53-11.88-6.16,10.22-29.83,10.22-29.83Z"/>
    <path class="cls-15" d="m37.15,89.7c-.41.54-2.52-1.05-3.38-.13-.87.93-.34,5.28-.88,5.54-.54.26-2.66-1.13-3.8-2.59-1.14-1.47-.16-4.81.14-5.5.22-.5-.32-2.22-.81-4.12,1.99-1.76,4.53-.11,4.77.04,0,.11.01.22.01.33.08,1.18.21,2.26.25,2.62.07.71,1.54,1.36,2.63,1.82,1.08.46,1.48,1.46,1.08,1.99Z"/>
    <path class="cls-13" d="m49.63,146.53c-.15.03-.89,4.01-.13,4.24s8.44.26,8.44.26c0,0,.51.12.41-1.01s-.48-2.37-2.81-3c-1.22-.33-1.9-.42-2.26-.43-.24,0-.44.13-.54.35-.27.6-.72,1.85-1.42,1.44-.74-.43-.76-.48-1.06-1.07-.35-.69-.42-.81-.63-.77Z"/>
    <path class="cls-13" d="m39.63,146.07c-.06.14-.89,4.01-.13,4.24s8.44.26,8.44.26c0,0,.51.12.41-1.01s-.48-2.37-2.81-3-2.68-.39-2.68-.39c0,0-.88,2.27-1.55,1.74s-1.06-.51-1.23-1.16-.4-.82-.46-.69Z"/>
    <path class="cls-8" d="m28.41,81.99c1.04.96,4.71,1.45,5.04,1.42.43-4.57,1.64-6.9,1.99-7.87.56-1.59-.17-8.24,1.33-9.49l2.1-.56c.15-.04.26-.18.25-.33-.13-4.44-.57-10.25-.61-10.94-.17.09-2.52,1.08-2.68,1.18-.83.45-1.55,1-2.02,1.64-2.09,2.88-2.91,12.12-3.42,15.9"/>
    <path class="cls-15" d="m60.33,94.57c-1.11-.41-.4-2.95-.08-3.77.31-.83,1.25-1.32,1.25-2.13,0-.32-.21-2.81-.5-5.8.33.03,3.01.18,4.05-.78-.19,3-.35,5.47-.25,6.16.25,1.79,1.15,2.28.97,5.71-.17,3.43-2.82,4.46-3.35,4.33-.54-.12,1.44-5.28.04-5.83-1.4-.54-1.02,2.51-2.14,2.1Z"/>
  </g>
</svg>